<svg width="22" height="22" viewBox="0 0 22 22" fill="none" xmlns="http://www.w3.org/2000/svg">
<g clip-path="url(#clip0_580_4681)">
<path d="M18.7773 0H3.22266C1.44566 0 0 1.44566 0 3.22266V18.7773C0 20.5543 1.44566 22 3.22266 22H18.7773C20.5543 22 22 20.5543 22 18.7773V3.22266C22 1.44566 20.5543 0 18.7773 0ZM20.7109 18.7773C20.7109 19.8435 19.8435 20.7109 18.7773 20.7109H3.22266C2.15649 20.7109 1.28906 19.8435 1.28906 18.7773V3.22266C1.28906 2.15649 2.15649 1.28906 3.22266 1.28906H18.7773C19.8435 1.28906 20.7109 2.15649 20.7109 3.22266V18.7773Z" fill="#3A3A3A"/>
<path d="M10.3555 9.06641C10.3555 7.64474 9.19901 6.48828 7.77734 6.48828H3.91016V15.5117H7.77734C9.19901 15.5117 10.3555 14.3553 10.3555 12.9336C10.3555 12.1642 10.0163 11.4728 9.47981 11C10.0163 10.5272 10.3555 9.83582 10.3555 9.06641ZM9.06641 12.9336C9.06641 13.6444 8.48817 14.2227 7.77734 14.2227H5.19922V11.6445H7.77734C8.48817 11.6445 9.06641 12.2228 9.06641 12.9336ZM5.19922 10.3555V7.77734H7.77734C8.48817 7.77734 9.06641 8.35558 9.06641 9.06641C9.06641 9.77724 8.48817 10.3555 7.77734 10.3555H5.19922Z" fill="#3A3A3A"/>
<path d="M14.8672 9.06641C13.0902 9.06641 11.6445 10.5121 11.6445 12.2891C11.6445 14.0661 13.0902 15.5117 14.8672 15.5117C16.0141 15.5117 17.0836 14.8945 17.6583 13.9009L16.5425 13.2554C16.1974 13.8521 15.5554 14.2227 14.8672 14.2227C14.0268 14.2227 13.3101 13.6839 13.044 12.9336H18.0898V12.2891C18.0898 10.5121 16.6442 9.06641 14.8672 9.06641ZM13.044 11.6445C13.3101 10.8943 14.0268 10.3555 14.8672 10.3555C15.7076 10.3555 16.4243 10.8943 16.6903 11.6445H13.044Z" fill="#3A3A3A"/>
<path d="M12.2891 6.48828H17.4453V7.77734H12.2891V6.48828Z" fill="#3A3A3A"/>
</g>
<defs>
<clipPath id="clip0_580_4681">
<rect width="22" height="22" fill="white"/>
</clipPath>
</defs>
</svg>
