<svg width="18" height="18" viewBox="0 0 18 18" fill="none" xmlns="http://www.w3.org/2000/svg">
<g clip-path="url(#clip0_579_4509)">
<path d="M15.3633 0H2.63672C1.18282 0 0 1.18282 0 2.63672V15.3633C0 16.8172 1.18282 18 2.63672 18H15.3633C16.8172 18 18 16.8172 18 15.3633V2.63672C18 1.18282 16.8172 0 15.3633 0ZM16.9453 15.3633C16.9453 16.2356 16.2356 16.9453 15.3633 16.9453H2.63672C1.7644 16.9453 1.05469 16.2356 1.05469 15.3633V2.63672C1.05469 1.7644 1.7644 1.05469 2.63672 1.05469H15.3633C16.2356 1.05469 16.9453 1.7644 16.9453 2.63672V15.3633Z" fill="#3A3A3A"/>
<path d="M8.47266 7.41797C8.47266 6.25479 7.52646 5.30859 6.36328 5.30859H3.19922V12.6914H6.36328C7.52646 12.6914 8.47266 11.7452 8.47266 10.582C8.47266 9.95251 8.19511 9.38686 7.75621 9C8.19511 8.61314 8.47266 8.04749 8.47266 7.41797ZM7.41797 10.582C7.41797 11.1636 6.94487 11.6367 6.36328 11.6367H4.25391V9.52734H6.36328C6.94487 9.52734 7.41797 10.0004 7.41797 10.582ZM4.25391 8.47266V6.36328H6.36328C6.94487 6.36328 7.41797 6.83638 7.41797 7.41797C7.41797 7.99956 6.94487 8.47266 6.36328 8.47266H4.25391Z" fill="#3A3A3A"/>
<path d="M12.1641 7.41797C10.7102 7.41797 9.52734 8.60078 9.52734 10.0547C9.52734 11.5086 10.7102 12.6914 12.1641 12.6914C13.1024 12.6914 13.9775 12.1864 14.4477 11.3735L13.5347 10.8453C13.2524 11.3335 12.7271 11.6367 12.1641 11.6367C11.4765 11.6367 10.8901 11.1959 10.6724 10.582H14.8008V10.0547C14.8008 8.60078 13.618 7.41797 12.1641 7.41797ZM10.6724 9.52734C10.8901 8.91348 11.4765 8.47266 12.1641 8.47266C12.8517 8.47266 13.4381 8.91348 13.6557 9.52734H10.6724Z" fill="#3A3A3A"/>
<path d="M10.0547 5.30859H14.2734V6.36328H10.0547V5.30859Z" fill="#3A3A3A"/>
</g>
<defs>
<clipPath id="clip0_579_4509">
<rect width="18" height="18" fill="white"/>
</clipPath>
</defs>
</svg>
