<svg width="45" height="45" viewBox="0 0 45 45" fill="none" xmlns="http://www.w3.org/2000/svg">
<path d="M10.3125 14.0625H18.75C18.9986 14.0625 19.2371 13.9637 19.4129 13.7879C19.5887 13.6121 19.6875 13.3736 19.6875 13.125C19.6875 12.8764 19.5887 12.6379 19.4129 12.4621C19.2371 12.2863 18.9986 12.1875 18.75 12.1875H10.3125C10.0639 12.1875 9.82538 12.2863 9.64959 12.4621C9.47381 12.6379 9.375 12.8764 9.375 13.125C9.375 13.3736 9.47381 13.6121 9.64959 13.7879C9.82538 13.9637 10.0639 14.0625 10.3125 14.0625Z" fill="#3A3A3A"/>
<path d="M26.25 14.0625H34.6875C34.9361 14.0625 35.1746 13.9637 35.3504 13.7879C35.5262 13.6121 35.625 13.3736 35.625 13.125C35.625 12.8764 35.5262 12.6379 35.3504 12.4621C35.1746 12.2863 34.9361 12.1875 34.6875 12.1875H26.25C26.0014 12.1875 25.7629 12.2863 25.5871 12.4621C25.4113 12.6379 25.3125 12.8764 25.3125 13.125C25.3125 13.3736 25.4113 13.6121 25.5871 13.7879C25.7629 13.9637 26.0014 14.0625 26.25 14.0625Z" fill="#3A3A3A"/>
<path d="M10.3125 18.75H18.75C18.9986 18.75 19.2371 18.6512 19.4129 18.4754C19.5887 18.2996 19.6875 18.0611 19.6875 17.8125C19.6875 17.5639 19.5887 17.3254 19.4129 17.1496C19.2371 16.9738 18.9986 16.875 18.75 16.875H10.3125C10.0639 16.875 9.82538 16.9738 9.64959 17.1496C9.47381 17.3254 9.375 17.5639 9.375 17.8125C9.375 18.0611 9.47381 18.2996 9.64959 18.4754C9.82538 18.6512 10.0639 18.75 10.3125 18.75Z" fill="#3A3A3A"/>
<path d="M26.25 18.75H34.6875C34.9361 18.75 35.1746 18.6512 35.3504 18.4754C35.5262 18.2996 35.625 18.0611 35.625 17.8125C35.625 17.5639 35.5262 17.3254 35.3504 17.1496C35.1746 16.9738 34.9361 16.875 34.6875 16.875H26.25C26.0014 16.875 25.7629 16.9738 25.5871 17.1496C25.4113 17.3254 25.3125 17.5639 25.3125 17.8125C25.3125 18.0611 25.4113 18.2996 25.5871 18.4754C25.7629 18.6512 26.0014 18.75 26.25 18.75Z" fill="#3A3A3A"/>
<path d="M10.3125 23.4375H18.75C18.9986 23.4375 19.2371 23.3387 19.4129 23.1629C19.5887 22.9871 19.6875 22.7486 19.6875 22.5C19.6875 22.2514 19.5887 22.0129 19.4129 21.8371C19.2371 21.6613 18.9986 21.5625 18.75 21.5625H10.3125C10.0639 21.5625 9.82538 21.6613 9.64959 21.8371C9.47381 22.0129 9.375 22.2514 9.375 22.5C9.375 22.7486 9.47381 22.9871 9.64959 23.1629C9.82538 23.3387 10.0639 23.4375 10.3125 23.4375Z" fill="#3A3A3A"/>
<path d="M26.25 23.4375H34.6875C34.9361 23.4375 35.1746 23.3387 35.3504 23.1629C35.5262 22.9871 35.625 22.7486 35.625 22.5C35.625 22.2514 35.5262 22.0129 35.3504 21.8371C35.1746 21.6613 34.9361 21.5625 34.6875 21.5625H26.25C26.0014 21.5625 25.7629 21.6613 25.5871 21.8371C25.4113 22.0129 25.3125 22.2514 25.3125 22.5C25.3125 22.7486 25.4113 22.9871 25.5871 23.1629C25.7629 23.3387 26.0014 23.4375 26.25 23.4375Z" fill="#3A3A3A"/>
<path d="M10.3125 28.125H18.75C18.9986 28.125 19.2371 28.0262 19.4129 27.8504C19.5887 27.6746 19.6875 27.4361 19.6875 27.1875C19.6875 26.9389 19.5887 26.7004 19.4129 26.5246C19.2371 26.3488 18.9986 26.25 18.75 26.25H10.3125C10.0639 26.25 9.82538 26.3488 9.64959 26.5246C9.47381 26.7004 9.375 26.9389 9.375 27.1875C9.375 27.4361 9.47381 27.6746 9.64959 27.8504C9.82538 28.0262 10.0639 28.125 10.3125 28.125Z" fill="#3A3A3A"/>
<path d="M26.25 28.125H34.6875C34.9361 28.125 35.1746 28.0262 35.3504 27.8504C35.5262 27.6746 35.625 27.4361 35.625 27.1875C35.625 26.9389 35.5262 26.7004 35.3504 26.5246C35.1746 26.3488 34.9361 26.25 34.6875 26.25H26.25C26.0014 26.25 25.7629 26.3488 25.5871 26.5246C25.4113 26.7004 25.3125 26.9389 25.3125 27.1875C25.3125 27.4361 25.4113 27.6746 25.5871 27.8504C25.7629 28.0262 26.0014 28.125 26.25 28.125Z" fill="#3A3A3A"/>
<path d="M40.3125 8.4375H39.375C39.375 7.69158 39.0787 6.97621 38.5512 6.44877C38.0238 5.92132 37.3084 5.625 36.5625 5.625H27.5831C25.9172 5.62345 24.2883 6.11682 22.9031 7.0425L22.5 7.3125L22.0969 7.04438C20.712 6.11803 19.0831 5.624 17.4169 5.625H8.4375C7.69158 5.625 6.97621 5.92132 6.44876 6.44877C5.92132 6.97621 5.625 7.69158 5.625 8.4375H4.6875C3.94158 8.4375 3.22621 8.73382 2.69876 9.26127C2.17132 9.78872 1.875 10.5041 1.875 11.25V32.8125C1.87649 34.0553 2.37082 35.2466 3.24958 36.1254C4.12834 37.0042 5.31975 37.4985 6.5625 37.5H17.04C17.6391 37.4898 18.2241 37.6821 18.7003 38.0456C19.7797 38.9065 21.1193 39.3754 22.5 39.3754C23.8807 39.3754 25.2203 38.9065 26.2997 38.0456C26.7759 37.6821 27.3609 37.4898 27.96 37.5H38.4375C39.6803 37.4985 40.8716 37.0042 41.7504 36.1254C42.6292 35.2466 43.1235 34.0553 43.125 32.8125V11.25C43.125 10.5041 42.8287 9.78872 42.3012 9.26127C41.7738 8.73382 41.0584 8.4375 40.3125 8.4375ZM27.5831 7.5H36.5625C36.8111 7.5 37.0496 7.59878 37.2254 7.7746C37.4012 7.95041 37.5 8.18887 37.5 8.4375V30.9375C37.5 31.1861 37.4012 31.4246 37.2254 31.6004C37.0496 31.7762 36.8111 31.875 36.5625 31.875H27.5831C26.1279 31.8808 24.6994 32.265 23.4375 32.9897V8.93907L23.9428 8.6025C25.0204 7.88277 26.2873 7.49908 27.5831 7.5ZM7.5 8.4375C7.5 8.18887 7.59877 7.95041 7.77458 7.7746C7.9504 7.59878 8.18886 7.5 8.4375 7.5H17.4169C18.7127 7.49908 19.9796 7.88277 21.0572 8.6025L21.5625 8.93907V32.9897C20.3006 32.265 18.8721 31.8808 17.4169 31.875H8.4375C8.18886 31.875 7.9504 31.7762 7.77458 31.6004C7.59877 31.4246 7.5 31.1861 7.5 30.9375V8.4375ZM41.25 32.8125C41.25 33.5585 40.9537 34.2738 40.4262 34.8012C39.8988 35.3287 39.1834 35.625 38.4375 35.625H27.96C26.9351 35.6146 25.9371 35.952 25.1288 36.5822C24.3732 37.1577 23.4498 37.4694 22.5 37.4694C21.5502 37.4694 20.6268 37.1577 19.8712 36.5822C19.0629 35.952 18.0649 35.6146 17.04 35.625H6.5625C5.81658 35.625 5.10121 35.3287 4.57376 34.8012C4.04632 34.2738 3.75 33.5585 3.75 32.8125V11.25C3.75 11.0014 3.84878 10.7629 4.02458 10.5871C4.2004 10.4113 4.43886 10.3125 4.6875 10.3125H5.625V30.9375C5.625 31.6835 5.92132 32.3988 6.44876 32.9262C6.97621 33.4537 7.69158 33.75 8.4375 33.75H17.4169C18.7127 33.7491 19.9796 34.1328 21.0572 34.8525L21.9797 35.4675C22.1337 35.5703 22.3148 35.6252 22.5 35.6252C22.6852 35.6252 22.8663 35.5703 23.0203 35.4675L23.9428 34.8525C25.0204 34.1328 26.2873 33.7491 27.5831 33.75H36.5625C37.3084 33.75 38.0238 33.4537 38.5512 32.9262C39.0787 32.3988 39.375 31.6835 39.375 30.9375V10.3125H40.3125C40.5611 10.3125 40.7996 10.4113 40.9754 10.5871C41.1512 10.7629 41.25 11.0014 41.25 11.25V32.8125Z" fill="#3A3A3A"/>
</svg>
