<svg width="42" height="42" viewBox="0 0 42 42" fill="none" xmlns="http://www.w3.org/2000/svg">
<path d="M40.1538 16.3696C39.684 15.3437 39.1309 14.358 38.5 13.4226L40.9806 6.68505C41.0994 6.39836 41.1605 6.09109 41.1605 5.78077C41.1605 5.47046 41.0994 5.16317 40.9806 4.87648C40.8619 4.58979 40.6879 4.32929 40.4684 4.10986C40.249 3.89043 39.9885 3.71637 39.7018 3.59762C39.4152 3.47886 39.1079 3.41773 38.7975 3.41772C38.4872 3.41772 38.1799 3.47884 37.8933 3.59759C37.6065 3.71634 37.3461 3.89039 37.1266 4.10981C36.9072 4.32924 36.7331 4.58973 36.6144 4.87643L34.65 9.12718C31.892 6.82938 28.587 5.28351 25.0554 4.63961C21.5239 3.9957 17.8859 4.27561 14.4944 5.45218C11.9039 6.36619 9.52595 7.79675 7.50475 9.65717C5.48357 11.5175 3.86125 13.769 2.73613 16.2751C1.57093 18.8253 0.935911 21.5857 0.869579 24.3887C0.803248 27.1917 1.30699 29.979 2.35025 32.5816C2.89569 33.9787 3.81958 35.1961 5.0183 36.0975C6.21702 36.9988 7.64315 37.5484 9.13675 37.6846C9.43933 37.7166 9.74339 37.7327 10.0476 37.7327C11.4263 37.7379 12.7848 37.4017 14.0019 36.7542C15.2191 36.1067 16.2571 35.1681 17.0231 34.0218C18.5007 31.7996 20.6205 30.0805 23.1 29.0938C23.7654 28.8304 24.4507 28.6204 25.1493 28.4656C24.7861 28.842 24.4965 29.283 24.2953 29.7658C23.7458 31.1108 23.6329 32.5943 23.9724 34.0069C24.2558 35.0957 24.1812 36.2468 23.7598 37.2899C23.7045 37.4232 23.683 37.568 23.6973 37.7115C23.7115 37.8551 23.7611 37.9928 23.8415 38.1126C23.9218 38.2324 24.0306 38.3304 24.158 38.398C24.2854 38.4656 24.4276 38.5007 24.5718 38.5001H24.6339C26.2552 38.3305 27.8014 37.7297 29.112 36.7603C30.4225 35.7909 31.4495 34.4882 32.0862 32.9876C32.3911 32.2462 32.4781 31.4332 32.3369 30.644C32.1956 29.855 31.8322 29.1226 31.2891 28.5329C32.7451 28.7937 34.2443 28.6626 35.633 28.1531C37.0216 27.6436 38.2498 26.7739 39.1916 25.6334C40.1335 24.4928 40.7551 23.1223 40.9927 21.6623C41.2304 20.2023 41.0755 18.7055 40.544 17.3251C40.425 17.0022 40.2955 16.6889 40.1538 16.3696ZM38.2008 5.60705C38.25 5.49973 38.3292 5.40893 38.4289 5.34559C38.5285 5.28225 38.6444 5.24907 38.7625 5.25005C38.8434 5.24982 38.9234 5.26588 38.9979 5.2973C39.1451 5.35752 39.2631 5.47264 39.327 5.6183C39.3907 5.76396 39.3955 5.92875 39.34 6.0778L32.4074 24.9008C32.3417 25.0801 32.2403 25.2442 32.1096 25.3834C31.9788 25.5226 31.8212 25.6338 31.6464 25.7105C31.4715 25.7873 31.2829 25.8278 31.092 25.8298C30.901 25.8317 30.7116 25.7951 30.5352 25.722C30.3588 25.6489 30.199 25.541 30.0654 25.4045C29.9317 25.2681 29.827 25.1061 29.7576 24.9282C29.6882 24.7503 29.6554 24.5603 29.6614 24.3694C29.6672 24.1785 29.7117 23.9908 29.792 23.8176L38.2008 5.60705ZM22.4551 27.4681C19.6444 28.586 17.2413 30.5343 15.5663 33.0532C14.892 34.0629 13.9522 34.8672 12.8505 35.3775C11.7488 35.8879 10.5277 36.0845 9.32138 35.9459C8.14613 35.8402 7.02357 35.4091 6.07956 34.7012C5.13557 33.9932 4.40746 33.0362 3.97688 31.9376C3.02061 29.5534 2.55855 26.9998 2.61871 24.4317C2.67888 21.8637 3.26001 19.3346 4.32688 16.9978C5.35526 14.7056 6.83856 12.6461 8.6868 10.9444C10.535 9.24268 12.7097 7.93407 15.0789 7.09805C18.2594 5.99621 21.6751 5.75671 24.9782 6.40394C28.2813 7.05116 31.3541 8.56201 33.8835 10.7827L28.2021 23.0843C27.946 23.6244 27.852 24.2271 27.9311 24.8194C28.0103 25.4118 28.2594 25.9687 28.6484 26.4224C26.5332 26.3289 24.4223 26.6853 22.4551 27.4681ZM30.4693 32.3208C30.0574 33.3209 29.4245 34.2148 28.618 34.9355C27.8116 35.6562 26.8524 36.1851 25.8125 36.4823C25.9382 35.5617 25.9018 34.6263 25.7049 33.7182C25.4222 32.6293 25.4967 31.4784 25.9175 30.4352C26.0383 30.1318 26.2182 29.8555 26.4466 29.6222C26.6751 29.3889 26.9476 29.2034 27.2484 29.0763C27.5492 28.9493 27.8723 28.8832 28.1987 28.8821C28.5253 28.8809 28.8488 28.9446 29.1505 29.0696C29.4522 29.1944 29.726 29.378 29.9562 29.6097C30.1863 29.8413 30.3681 30.1163 30.491 30.4188C30.614 30.7213 30.6756 31.0452 30.6723 31.3718C30.669 31.6982 30.6009 32.0209 30.4719 32.3208H30.4693ZM37.7641 24.6208C37.1753 25.3207 36.4454 25.8884 35.6222 26.287C34.7989 26.6855 33.9008 26.9058 32.9866 26.9334C33.471 26.5711 33.8402 26.0764 34.0498 25.5089L37.7379 15.4876C38.0363 16.0126 38.311 16.5376 38.556 17.0853C38.6803 17.3671 38.7966 17.6479 38.9104 17.9533C39.3546 19.0614 39.4826 20.271 39.2802 21.4475C39.0779 22.6241 38.553 23.7213 37.7641 24.6173V24.6208Z" fill="#3A3A3A"/>
<path d="M9.1875 21C8.40873 21 7.64746 21.2309 6.99994 21.6636C6.35242 22.0963 5.84775 22.7112 5.54972 23.4307C5.25171 24.1502 5.17373 24.9419 5.32566 25.7057C5.47759 26.4694 5.8526 27.171 6.40327 27.7217C6.95394 28.2724 7.65553 28.6474 8.41933 28.7993C9.18313 28.9513 9.97483 28.8733 10.6943 28.5753C11.4138 28.2773 12.0287 27.7726 12.4614 27.1251C12.8941 26.4775 13.125 25.7162 13.125 24.9375C13.1239 23.8935 12.7086 22.8927 11.9704 22.1546C11.2323 21.4164 10.2315 21.0011 9.1875 21ZM9.1875 27.125C8.75481 27.125 8.33193 26.9967 7.97219 26.7564C7.61246 26.516 7.33208 26.1743 7.16651 25.7746C7.00095 25.3749 6.95763 24.9351 7.04204 24.5108C7.12644 24.0864 7.33478 23.6967 7.6407 23.3907C7.94663 23.0848 8.33641 22.8764 8.76076 22.792C9.18505 22.7077 9.62491 22.751 10.0246 22.9165C10.4243 23.0821 10.766 23.3625 11.0064 23.7222C11.2467 24.0819 11.375 24.5048 11.375 24.9375C11.375 25.5176 11.1445 26.074 10.7343 26.4843C10.324 26.8945 9.76763 27.125 9.1875 27.125Z" fill="#3A3A3A"/>
<path d="M13.5625 10.9375C12.7838 10.9375 12.0225 11.1684 11.3749 11.6011C10.7274 12.0338 10.2227 12.6487 9.92469 13.3682C9.62666 14.0877 9.5487 14.8794 9.70069 15.6432C9.85259 16.4069 10.2276 17.1085 10.7783 17.6592C11.329 18.2099 12.0306 18.5849 12.7943 18.7368C13.5581 18.8888 14.3498 18.8108 15.0693 18.5128C15.7888 18.2148 16.4037 17.7101 16.8364 17.0626C17.2691 16.415 17.5 15.6538 17.5 14.875C17.4989 13.831 17.0836 12.8302 16.3454 12.0921C15.6073 11.3539 14.6065 10.9386 13.5625 10.9375ZM13.5625 17.0625C13.1298 17.0625 12.7069 16.9342 12.3472 16.6939C11.9875 16.4535 11.7071 16.1118 11.5415 15.7121C11.376 15.3124 11.3327 14.8726 11.417 14.4483C11.5014 14.0239 11.7098 13.6342 12.0157 13.3282C12.3217 13.0223 12.7114 12.8139 13.1358 12.7295C13.5601 12.6452 13.9999 12.6885 14.3996 12.854C14.7993 13.0196 15.141 13.3 15.3814 13.6597C15.6217 14.0194 15.75 14.4423 15.75 14.875C15.75 15.4551 15.5195 16.0115 15.1093 16.4218C14.699 16.832 14.1426 17.0625 13.5625 17.0625Z" fill="#3A3A3A"/>
<path d="M24.9375 8.75C24.1588 8.75 23.3975 8.98091 22.7499 9.4136C22.1024 9.84629 21.5977 10.4612 21.2997 11.1807C21.0017 11.9002 20.9237 12.6919 21.0757 13.4557C21.2276 14.2195 21.6026 14.921 22.1533 15.4717C22.704 16.0224 23.4056 16.3974 24.1693 16.5493C24.9331 16.7013 25.7248 16.6233 26.4443 16.3253C27.1638 16.0273 27.7787 15.5226 28.2114 14.8751C28.6441 14.2275 28.875 13.4663 28.875 12.6875C28.8739 11.6435 28.4586 10.6427 27.7204 9.90456C26.9823 9.16641 25.9815 8.75114 24.9375 8.75ZM24.9375 14.875C24.5048 14.875 24.0819 14.7467 23.7222 14.5064C23.3624 14.266 23.0821 13.9243 22.9165 13.5246C22.751 13.1249 22.7077 12.685 22.792 12.2608C22.8764 11.8364 23.0848 11.4467 23.3907 11.1407C23.6967 10.8348 24.0864 10.6264 24.5108 10.542C24.9351 10.4577 25.3749 10.501 25.7746 10.6665C26.1743 10.8321 26.516 11.1125 26.7564 11.4722C26.9967 11.8319 27.125 12.2548 27.125 12.6875C27.125 13.2676 26.8945 13.824 26.4843 14.2343C26.074 14.6445 25.5176 14.875 24.9375 14.875Z" fill="#3A3A3A"/>
</svg>
