<svg width="22" height="22" viewBox="0 0 22 22" fill="none" xmlns="http://www.w3.org/2000/svg">
<path d="M2.02221 19.3409H19.9778C21.0929 19.3409 22 18.4337 22 17.3185V4.68123C22 3.56608 21.0929 2.65894 19.9778 2.65894H2.02221C0.907148 2.65894 0 3.56617 0 4.68123V17.3185C0 18.4337 0.907148 19.3409 2.02221 19.3409ZM1.317 4.68123C1.317 4.29175 1.63316 3.97593 2.02221 3.97593H19.9778C20.367 3.97593 20.683 4.29175 20.683 4.68123V17.3185C20.683 17.7081 20.3669 18.0239 19.9778 18.0239H2.02221C1.63308 18.0239 1.317 17.7081 1.317 17.3185V4.68123ZM3.92799 17.0925H2.61099V4.96315L10.8356 10.3027C10.9323 10.3655 11.0676 10.3656 11.1646 10.3025L19.3891 4.96315V17.0925H18.0721V7.38836L11.8816 11.4073C11.6189 11.5777 11.3141 11.6677 11 11.6677C10.6859 11.6677 10.3811 11.5777 10.1186 11.4074L3.92799 7.38836V17.0925Z" fill="#3A3A3A"/>
</svg>
