<svg width="18" height="18" viewBox="0 0 18 18" fill="none" xmlns="http://www.w3.org/2000/svg">
<path d="M1.65453 15.8244H16.3455C17.2578 15.8244 18 15.0821 18 14.1697V3.83014C18 2.91775 17.2578 2.17554 16.3455 2.17554H1.65453C0.742212 2.17554 0 2.91782 0 3.83014V14.1697C0 15.0821 0.742212 15.8244 1.65453 15.8244ZM1.07754 3.83014C1.07754 3.51148 1.33623 3.25308 1.65453 3.25308H16.3455C16.6639 3.25308 16.9225 3.51148 16.9225 3.83014V14.1697C16.9225 14.4885 16.6638 14.7469 16.3455 14.7469H1.65453C1.33615 14.7469 1.07754 14.4885 1.07754 14.1697V3.83014ZM3.21381 13.9848H2.13627V4.06081L8.86545 8.42953C8.94461 8.48089 9.05531 8.48096 9.13469 8.42938L15.8638 4.06081V13.9848H14.7863V6.04507L9.72131 9.3333C9.50637 9.47273 9.25696 9.54636 9 9.54636C8.74304 9.54636 8.49363 9.47273 8.27884 9.33337L3.21381 6.04507V13.9848Z" fill="#3A3A3A"/>
</svg>
