<svg width="22" height="22" viewBox="0 0 22 22" fill="none" xmlns="http://www.w3.org/2000/svg">
<g clip-path="url(#clip0_580_4687)">
<path d="M3.22266 22H18.7773C20.5543 22 22 20.5543 22 18.7773V3.22266C22 1.44566 20.5543 0 18.7773 0H3.22266C1.44566 0 0 1.44566 0 3.22266V18.7773C0 20.5543 1.44566 22 3.22266 22ZM1.28906 3.22266C1.28906 2.15649 2.15649 1.28906 3.22266 1.28906H18.7773C19.8435 1.28906 20.7109 2.15649 20.7109 3.22266V18.7773C20.7109 19.8435 19.8435 20.7109 18.7773 20.7109H3.22266C2.15649 20.7109 1.28906 19.8435 1.28906 18.7773V3.22266Z" fill="#3A3A3A"/>
<path d="M11 16.8008C14.1985 16.8008 16.8008 14.1985 16.8008 11C16.8008 7.80151 14.1985 5.19922 11 5.19922C7.80151 5.19922 5.19922 7.80151 5.19922 11C5.19922 14.1985 7.80151 16.8008 11 16.8008ZM11 6.48828C13.4878 6.48828 15.5117 8.51218 15.5117 11C15.5117 13.4878 13.4878 15.5117 11 15.5117C8.51218 15.5117 6.48828 13.4878 6.48828 11C6.48828 8.51218 8.51218 6.48828 11 6.48828Z" fill="#3A3A3A"/>
<path d="M17.4453 6.48828C18.5115 6.48828 19.3789 5.62085 19.3789 4.55469C19.3789 3.48853 18.5115 2.62109 17.4453 2.62109C16.3792 2.62109 15.5117 3.48853 15.5117 4.55469C15.5117 5.62085 16.3792 6.48828 17.4453 6.48828ZM17.4453 3.91016C17.8006 3.91016 18.0898 4.19936 18.0898 4.55469C18.0898 4.91002 17.8006 5.19922 17.4453 5.19922C17.09 5.19922 16.8008 4.91002 16.8008 4.55469C16.8008 4.19936 17.09 3.91016 17.4453 3.91016Z" fill="#3A3A3A"/>
</g>
<defs>
<clipPath id="clip0_580_4687">
<rect width="22" height="22" fill="white"/>
</clipPath>
</defs>
</svg>
