<svg width="40" height="40" viewBox="0 0 40 40" fill="none" xmlns="http://www.w3.org/2000/svg">
<path d="M16.9451 26.2921C17.7496 28.132 18.7731 29.8682 19.9934 31.463C21.2164 29.8683 22.2431 28.1322 23.0511 26.2921C21.022 26.1985 18.9742 26.1985 16.9451 26.2921Z" fill="#3A3A3A"/>
<path d="M9.75438 27.0028C11.4619 29.4239 13.9683 31.1654 16.8329 31.9213C15.6683 30.2327 14.7079 28.4122 13.9715 26.4978C12.5596 26.6194 11.1476 26.7877 9.75438 27.0028Z" fill="#3A3A3A"/>
<path d="M8.32368 15.2207C7.16421 18.1556 7.16421 21.4215 8.32368 24.3564C9.94134 24.0852 11.5684 23.8701 13.1487 23.7112C12.5783 21.124 12.5783 18.4437 13.1487 15.8566C11.559 15.707 9.94134 15.4919 8.32368 15.2207Z" fill="#3A3A3A"/>
<path d="M16.01 23.4963C17.3378 23.4214 18.6656 23.384 19.9934 23.3841C21.3306 23.3841 22.6584 23.4214 23.9861 23.4963C24.5846 21.0576 24.5846 18.5104 23.9861 16.0718C21.3298 16.2307 18.6663 16.2307 16.01 16.0718C15.4115 18.5104 15.4115 21.0576 16.01 23.4963Z" fill="#3A3A3A"/>
<path d="M31.6725 24.3564C32.8195 21.4192 32.8195 18.1579 31.6725 15.2207C30.0548 15.4919 28.4277 15.707 26.8475 15.8566C27.4178 18.4437 27.4178 21.124 26.8475 23.7112C28.4277 23.8701 30.0548 24.0852 31.6725 24.3564Z" fill="#3A3A3A"/>
<path d="M23.1539 7.65601C24.3248 9.34219 25.2886 11.1631 26.0246 13.0794C27.4366 12.9579 28.8485 12.7802 30.2418 12.5745C28.5307 10.1529 26.0212 8.41152 23.1539 7.65601Z" fill="#3A3A3A"/>
<path d="M23.0511 13.2852C22.2452 11.444 21.2184 9.70761 19.9934 8.11426C18.7712 9.70778 17.7475 11.4442 16.9451 13.2852C18.9742 13.3787 21.022 13.3787 23.0511 13.2852Z" fill="#3A3A3A"/>
<path d="M4.09055 13.1908C4.28425 13.3125 4.51112 13.3708 4.73953 13.3575C4.96793 13.3442 5.18649 13.2599 5.36472 13.1164C5.73001 12.8084 5.89186 12.2355 6.05234 11.8049L6.63273 10.2461H11.5741L12.1545 11.7716C12.3684 12.3326 12.6289 13.1664 13.2906 13.3247C13.462 13.3643 13.6399 13.3665 13.8122 13.3309C13.9844 13.2954 14.147 13.2231 14.2887 13.1189C14.4304 13.0147 14.5479 12.8811 14.6332 12.7273C14.7185 12.5734 14.7695 12.403 14.7828 12.2276C14.7344 11.7755 14.6082 11.3351 14.4097 10.926L11.2342 3.08271C11.0582 2.53284 10.8206 2.00459 10.5261 1.50798C10.073 0.848623 9.19881 0.820498 8.45166 1.09087C7.55214 1.41636 7.28657 2.50653 6.97266 3.3034C6.97054 3.30881 3.86355 10.9923 3.86355 10.9923C3.56551 11.7309 3.24422 12.6821 4.09055 13.1908ZM9.07857 3.58528L10.9109 8.39723H7.27944L9.07857 3.58528Z" fill="#3A3A3A"/>
<path d="M35.0747 30.6084C35.3251 30.6084 35.5653 30.5089 35.7423 30.3318C35.9194 30.1548 36.0189 29.9146 36.0189 29.6642C36.0189 29.4138 35.9194 29.1737 35.7423 28.9966C35.5653 28.8195 35.3251 28.7201 35.0747 28.7201H28.7678L28.8751 27.526C28.8973 27.2767 28.8196 27.0288 28.659 26.8367C28.4985 26.6446 28.2682 26.5242 28.0189 26.5018C27.7696 26.4795 27.5216 26.557 27.3294 26.7174C27.1373 26.8779 27.0167 27.108 26.9942 27.3573L26.8718 28.7201H24.7186C24.4682 28.7201 24.2281 28.8195 24.051 28.9966C23.874 29.1737 23.7745 29.4138 23.7745 29.6642C23.7745 29.9146 23.874 30.1548 24.051 30.3318C24.2281 30.5089 24.4682 30.6084 24.7186 30.6084H26.7021L26.4041 33.9267C26.3819 34.1726 26.4571 34.4174 26.6134 34.6085C27.0764 35.138 27.5918 35.6194 28.1517 36.0452C26.9654 36.7879 25.6167 37.2319 24.2212 37.3391C23.9791 37.3608 23.7547 37.475 23.5947 37.6579C23.4348 37.8409 23.3515 38.0785 23.3622 38.3213C23.373 38.5641 23.4769 38.7934 23.6525 38.9615C23.828 39.1295 24.0616 39.2235 24.3046 39.2237C24.3327 39.2237 24.3613 39.2223 24.3899 39.22C26.3702 39.0772 28.267 38.3649 29.8519 37.1689C31.1784 37.9076 32.8936 38.7737 34.9857 38.9714C35.0161 38.9742 35.0461 38.9755 35.0756 38.9755C35.3182 38.9753 35.5515 38.8817 35.7269 38.7141C35.9024 38.5465 36.0065 38.3178 36.0179 38.0755C36.0292 37.8331 35.9468 37.5957 35.7878 37.4125C35.6287 37.2292 35.4052 37.1143 35.1637 37.0914C33.6552 36.9488 32.3789 36.3091 31.3301 35.7962C32.6037 34.2943 33.514 32.5191 33.9905 30.6084H35.0747ZM29.6687 34.8095C29.1898 34.4699 28.7395 34.0917 28.3223 33.6787L28.5982 30.6084H32.0409C31.5934 32.1766 30.7804 33.6163 29.6687 34.8095Z" fill="#3A3A3A"/>
<path d="M20 1.6709C17.9342 1.66964 15.8836 2.02336 13.9376 2.71662L14.8112 4.86758C17.7095 3.85687 20.8395 3.7129 23.8183 4.45329C26.7971 5.19368 29.4955 6.78631 31.5832 9.03631C33.671 11.2863 35.0577 14.0961 35.5735 17.1219C36.0893 20.1476 35.712 23.2582 34.4876 26.0728H35.0767C35.6835 26.0734 36.2802 26.2282 36.8107 26.5229C37.6742 24.3817 38.1169 22.0941 38.1145 19.7854C38.1145 10.3425 29.9871 1.6709 20 1.6709Z" fill="#3A3A3A"/>
<path d="M4.20197 19.9893C4.20022 18.7132 4.35582 17.4417 4.66526 16.2036C3.86931 16.2048 3.09417 15.9495 2.45469 15.4756C1.76766 18.1518 1.70167 20.9497 2.26176 23.6553C2.82185 26.3609 3.99318 28.9026 5.68622 31.0861C7.37925 33.2696 9.54915 35.0371 12.03 36.2534C14.5109 37.4697 17.237 38.1026 20 38.1038C20.2449 38.1038 20.4964 38.0972 20.7413 38.084C20.8157 37.3846 21.0968 36.7233 21.5487 36.1845C21.7173 35.9803 21.9108 35.798 22.1245 35.6418C21.4207 35.7405 20.7107 35.7892 20 35.7874C15.8113 35.7833 11.7954 34.1176 8.83358 31.1557C5.87175 28.1939 4.20602 24.178 4.20197 19.9893Z" fill="#3A3A3A"/>
</svg>
