<svg width="41" height="41" viewBox="0 0 41 41" fill="none" xmlns="http://www.w3.org/2000/svg">
<path d="M33.3125 23.9167H29.8958V22.2084C29.8958 21.9819 29.8058 21.7646 29.6456 21.6044C29.4855 21.4442 29.2682 21.3542 29.0417 21.3542C28.8151 21.3542 28.5979 21.4442 28.4377 21.6044C28.2775 21.7646 28.1875 21.9819 28.1875 22.2084V23.9167H24.7708C24.5443 23.9167 24.327 24.0067 24.1668 24.1669C24.0066 24.3271 23.9167 24.5444 23.9167 24.7709C23.9167 24.9975 24.0066 25.2147 24.1668 25.3749C24.327 25.5351 24.5443 25.6251 24.7708 25.6251H31.1087C30.8996 27.0762 30.1616 28.3989 29.0365 29.339C28.3794 28.7901 27.8483 28.1061 27.4794 27.3334C27.4336 27.2286 27.3672 27.134 27.2841 27.0553C27.2011 26.9766 27.1031 26.9154 26.9959 26.8753C26.8887 26.8352 26.7746 26.817 26.6603 26.8219C26.546 26.8268 26.4338 26.8545 26.3304 26.9036C26.2271 26.9526 26.1346 27.022 26.0585 27.1074C25.9825 27.1929 25.9243 27.2928 25.8876 27.4012C25.8509 27.5095 25.8363 27.6242 25.8448 27.7383C25.8532 27.8524 25.8845 27.9636 25.9368 28.0654C26.3337 28.8886 26.8763 29.6332 27.5383 30.2632C26.7792 30.5865 25.9623 30.7522 25.1373 30.7501C25.0266 30.7506 24.9172 30.7733 24.8155 30.8168C24.7137 30.8602 24.6218 30.9237 24.5449 31.0033C24.4681 31.0829 24.408 31.1771 24.3682 31.2803C24.3283 31.3835 24.3096 31.4937 24.313 31.6042C24.3201 31.8339 24.4166 32.0516 24.5819 32.2112C24.7472 32.3707 24.9682 32.4594 25.1979 32.4584C26.5554 32.4579 27.8882 32.0952 29.0587 31.4078C30.2401 32.0924 31.5806 32.4547 32.9461 32.4584C33.0567 32.4579 33.1661 32.4352 33.2678 32.3917C33.3696 32.3483 33.4616 32.2848 33.5384 32.2052C33.6152 32.1256 33.6753 32.0314 33.7152 31.9282C33.755 31.825 33.7737 31.7148 33.7703 31.6042C33.7632 31.3746 33.6667 31.1569 33.5014 30.9973C33.3362 30.8378 33.1151 30.7491 32.8854 30.7501C32.0863 30.747 31.2961 30.5825 30.5621 30.2666C31.8342 29.0292 32.6376 27.3887 32.835 25.6251H33.3125C33.539 25.6251 33.7563 25.5351 33.9165 25.3749C34.0767 25.2147 34.1667 24.9975 34.1667 24.7709C34.1667 24.5444 34.0767 24.3271 33.9165 24.1669C33.7563 24.0067 33.539 23.9167 33.3125 23.9167Z" fill="#3A3A3A"/>
<path d="M11.9583 8.1145C11.7944 8.11455 11.6339 8.16177 11.4961 8.25052C11.3583 8.33928 11.2489 8.46582 11.181 8.61504L6.91021 18.0109C6.82236 18.2161 6.81833 18.4475 6.89898 18.6557C6.97963 18.8638 7.13855 19.0321 7.34173 19.1245C7.54491 19.217 7.7762 19.2262 7.9861 19.1502C8.196 19.0743 8.36782 18.9192 8.4648 18.7181L9.98436 15.3749H13.9323L15.4519 18.7181C15.5489 18.9192 15.7207 19.0743 15.9306 19.1502C16.1405 19.2262 16.3718 19.217 16.5749 19.1245C16.7781 19.0321 16.937 18.8638 17.0177 18.6557C17.0983 18.4475 17.0943 18.2161 17.0065 18.0109L12.7356 8.61504C12.6678 8.46582 12.5584 8.33928 12.4206 8.25052C12.2827 8.16177 12.1223 8.11455 11.9583 8.1145ZM10.7625 13.6666L11.9583 11.0332L13.1542 13.6666H10.7625Z" fill="#3A3A3A"/>
<path d="M35.0208 17.0833H23.0625C21.9302 17.0846 20.8447 17.535 20.0441 18.3356C19.2434 19.1363 18.793 20.2218 18.7917 21.3541V33.3124C18.793 34.4447 19.2434 35.5302 20.0441 36.3309C20.8447 37.1315 21.9302 37.5819 23.0625 37.5833H35.0208C36.1531 37.5819 37.2386 37.1315 38.0393 36.3309C38.8399 35.5302 39.2903 34.4447 39.2917 33.3124V21.3541C39.2903 20.2218 38.8399 19.1363 38.0393 18.3356C37.2386 17.535 36.1531 17.0846 35.0208 17.0833ZM37.5833 33.3124C37.5833 33.992 37.3133 34.6438 36.8328 35.1244C36.3522 35.6049 35.7004 35.8749 35.0208 35.8749H23.0625C22.3829 35.8749 21.7311 35.6049 21.2505 35.1244C20.77 34.6438 20.5 33.992 20.5 33.3124V21.3541C20.5 20.6745 20.77 20.0227 21.2505 19.5421C21.7311 19.0616 22.3829 18.7916 23.0625 18.7916H35.0208C35.7004 18.7916 36.3522 19.0616 36.8328 19.5421C37.3133 20.0227 37.5833 20.6745 37.5833 21.3541V33.3124Z" fill="#3A3A3A"/>
<path d="M20.5 7.68758V14.7345C20.5 14.961 20.59 15.1783 20.7502 15.3384C20.9104 15.4986 21.1276 15.5886 21.3542 15.5886C21.5807 15.5886 21.798 15.4986 21.9582 15.3384C22.1184 15.1783 22.2083 14.961 22.2083 14.7345V7.68758C22.207 6.5553 21.7566 5.46979 20.9559 4.66914C20.1553 3.8685 19.0698 3.4181 17.9375 3.41675H5.97918C4.8469 3.4181 3.76138 3.8685 2.96074 4.66914C2.1601 5.46979 1.7097 6.5553 1.70834 7.68758V19.6459C1.7097 20.7782 2.1601 21.8637 2.96074 22.6644C3.76138 23.465 4.8469 23.9154 5.97918 23.9167H16.2292C16.4557 23.9167 16.673 23.8268 16.8332 23.6666C16.9934 23.5064 17.0833 23.2891 17.0833 23.0626C17.0833 22.836 16.9934 22.6188 16.8332 22.4586C16.673 22.2984 16.4557 22.2084 16.2292 22.2084H5.97918C5.29956 22.2084 4.64778 21.9384 4.16722 21.4579C3.68665 20.9773 3.41668 20.3255 3.41668 19.6459V7.68758C3.41668 7.00796 3.68665 6.35618 4.16722 5.87562C4.64778 5.39506 5.29956 5.12508 5.97918 5.12508H17.9375C18.6171 5.12508 19.2689 5.39506 19.7495 5.87562C20.23 6.35618 20.5 7.00796 20.5 7.68758Z" fill="#3A3A3A"/>
<path d="M27.5836 10.854C27.7447 11.0096 27.9605 11.0957 28.1844 11.0937C28.4084 11.0918 28.6226 11.0019 28.781 10.8436C28.9394 10.6852 29.0292 10.471 29.0311 10.247C29.0331 10.023 28.947 9.80728 28.7914 9.64618L28.5411 9.39591H32.4583C32.6849 9.39591 32.9021 9.48591 33.0623 9.64609C33.2225 9.80628 33.3125 10.0235 33.3125 10.2501V12.8126C33.3125 13.0391 33.4025 13.2564 33.5627 13.4166C33.7229 13.5768 33.9401 13.6667 34.1667 13.6667C34.3932 13.6667 34.6105 13.5768 34.7707 13.4166C34.9308 13.2564 35.0208 13.0391 35.0208 12.8126V10.2501C35.0208 9.57046 34.7509 8.91868 34.2703 8.43812C33.7897 7.95756 33.138 7.68758 32.4583 7.68758H28.5411L28.7914 7.43731C28.873 7.35851 28.9381 7.26426 28.9828 7.16005C29.0276 7.05584 29.0511 6.94375 29.0521 6.83034C29.0531 6.71692 29.0315 6.60445 28.9886 6.49947C28.9456 6.3945 28.8822 6.29913 28.802 6.21893C28.7218 6.13873 28.6264 6.0753 28.5214 6.03236C28.4165 5.98941 28.304 5.9678 28.1906 5.96878C28.0772 5.96977 27.9651 5.99333 27.8609 6.0381C27.7567 6.08286 27.6624 6.14794 27.5836 6.22952L25.8753 7.93785C25.7151 8.09803 25.6252 8.31525 25.6252 8.54175C25.6252 8.76824 25.7151 8.98546 25.8753 9.14564L27.5836 10.854Z" fill="#3A3A3A"/>
<path d="M13.4164 30.146C13.2553 29.9904 13.0395 29.9043 12.8156 29.9063C12.5916 29.9082 12.3774 29.9981 12.219 30.1564C12.0606 30.3148 11.9708 30.529 11.9689 30.753C11.9669 30.977 12.053 31.1927 12.2086 31.3538L12.4589 31.6041H8.54166C8.31512 31.6041 8.09786 31.5141 7.93767 31.3539C7.77748 31.1937 7.68749 30.9765 7.68749 30.7499V28.1874C7.68749 27.9609 7.5975 27.7436 7.43731 27.5834C7.27712 27.4232 7.05986 27.3333 6.83332 27.3333C6.60678 27.3333 6.38952 27.4232 6.22934 27.5834C6.06915 27.7436 5.97916 27.9609 5.97916 28.1874V30.7499C5.97916 31.4295 6.24913 32.0813 6.7297 32.5619C7.21026 33.0424 7.86204 33.3124 8.54166 33.3124H12.4589L12.2086 33.5627C12.127 33.6415 12.0619 33.7357 12.0172 33.8399C11.9724 33.9442 11.9488 34.0562 11.9479 34.1697C11.9469 34.2831 11.9685 34.3956 12.0114 34.5005C12.0544 34.6055 12.1178 34.7009 12.198 34.7811C12.2782 34.8613 12.3736 34.9247 12.4786 34.9676C12.5835 35.0106 12.696 35.0322 12.8094 35.0312C12.9228 35.0302 13.0349 35.0067 13.1391 34.9619C13.2433 34.9171 13.3376 34.8521 13.4164 34.7705L15.1247 33.0621C15.2849 32.902 15.3748 32.6847 15.3748 32.4583C15.3748 32.2318 15.2849 32.0145 15.1247 31.8544L13.4164 30.146Z" fill="#3A3A3A"/>
</svg>
