<svg width="22" height="22" viewBox="0 0 22 22" fill="none" xmlns="http://www.w3.org/2000/svg">
<g clip-path="url(#clip0_580_4692)">
<path d="M19.36 0.439941H2.64C1.42692 0.439941 0.440002 1.42686 0.440002 2.63994V19.3599C0.440002 20.573 1.42692 21.5599 2.64 21.5599H19.36C20.5731 21.5599 21.56 20.573 21.56 19.3599V2.63994C21.56 1.42686 20.5731 0.439941 19.36 0.439941ZM20.68 19.3599C20.68 20.0877 20.0878 20.6799 19.36 20.6799H2.64C1.91224 20.6799 1.32 20.0877 1.32 19.3599V2.63994C1.32 1.91218 1.91224 1.31994 2.64 1.31994H19.36C20.0878 1.31994 20.68 1.91218 20.68 2.63994V19.3599Z" fill="#3A3A3A"/>
<path d="M3.52002 18.4799H7.04002V8.35986H3.52002V18.4799ZM4.40002 9.23986H6.16002V17.5999H4.40002V9.23986Z" fill="#3A3A3A"/>
<path d="M5.28002 3.07983C4.06694 3.07983 3.08002 4.06675 3.08002 5.27983C3.08002 6.49291 4.06694 7.47983 5.28002 7.47983C6.4931 7.47983 7.48002 6.49291 7.48002 5.27983C7.48002 4.06675 6.4931 3.07983 5.28002 3.07983ZM5.28002 6.59983C4.55226 6.59983 3.96002 6.00759 3.96002 5.27983C3.96002 4.55207 4.55226 3.95983 5.28002 3.95983C6.00778 3.95983 6.60002 4.55207 6.60002 5.27983C6.60002 6.00759 6.00778 6.59983 5.28002 6.59983Z" fill="#3A3A3A"/>
<path d="M13.64 8.35986C13.0403 8.35986 12.4507 8.49538 11.88 8.7629V8.35986H8.35999V18.4799H11.88V13.6399C11.88 12.6692 12.6693 11.8799 13.64 11.8799C14.6106 11.8799 15.4 12.6692 15.4 13.6399V18.4799H18.92V13.6399C18.92 10.7284 16.5515 8.35986 13.64 8.35986ZM18.04 17.5999H16.28V13.6399C16.28 12.1839 15.0959 10.9999 13.64 10.9999C12.184 10.9999 11 12.1839 11 13.6399V17.5999H9.23999V9.23986H11V10.3491L11.6868 9.88402C12.3182 9.45678 12.9751 9.23986 13.64 9.23986C16.0661 9.23986 18.04 11.2137 18.04 13.6399V17.5999Z" fill="#3A3A3A"/>
</g>
<defs>
<clipPath id="clip0_580_4692">
<rect width="22" height="22" fill="white"/>
</clipPath>
</defs>
</svg>
