<svg width="22" height="22" viewBox="0 0 22 22" fill="none" xmlns="http://www.w3.org/2000/svg">
<g clip-path="url(#clip0_580_4676)">
<path d="M18.3188 3.21025C16.8411 1.82168 14.9988 0.882125 13.0071 0.501264C11.0154 0.120402 8.9565 0.313951 7.07068 1.05932C5.18486 1.80468 3.54997 3.07111 2.35688 4.71075C1.16379 6.35038 0.461718 8.29558 0.332635 10.3192C0.234556 11.779 0.439569 13.2433 0.934781 14.62C1.42999 15.9967 2.20469 17.2561 3.21017 18.3189C4.21123 19.3808 5.41837 20.2274 6.75778 20.8068C8.09718 21.3862 9.5407 21.6863 11.0001 21.6888C11.1521 21.6888 11.298 21.6284 11.4055 21.5209C11.513 21.4134 11.5734 21.2675 11.5734 21.1155C11.5734 20.9634 11.513 20.8175 11.4055 20.71C11.298 20.6025 11.1521 20.5421 11.0001 20.5421C8.5221 20.5422 6.14128 19.5783 4.36127 17.8544C2.58126 16.1305 1.54167 13.7817 1.46243 11.305C1.38319 8.82835 2.27051 6.41797 3.93669 4.5838C5.60286 2.74963 7.91719 1.63555 10.3901 1.47724C11.6919 1.39399 12.9969 1.57851 14.2246 2.01941C15.4523 2.46031 16.5765 3.14822 17.5279 4.04066C18.4793 4.9331 19.2376 6.01111 19.756 7.20811C20.2744 8.40512 20.5419 9.6957 20.542 11.0001C20.5467 12.5041 20.192 13.9875 19.5074 15.3266C19.2553 15.7938 18.8327 16.1457 18.3276 16.3091C17.8225 16.4724 17.2739 16.4346 16.796 16.2035L16.4919 16.0595C16.6643 15.8862 16.8242 15.7207 16.941 15.5954C16.9769 15.5568 17.0042 15.511 17.0211 15.4611C17.038 15.4111 17.0442 15.3582 17.0391 15.3057C17.0341 15.2532 17.018 15.2024 16.992 15.1566C16.9659 15.1108 16.9304 15.071 16.8879 15.0399L14.0356 13.2084C13.9896 13.1744 13.9372 13.15 13.8815 13.1367C13.8258 13.1234 13.768 13.1215 13.7116 13.1311C13.6551 13.1407 13.6012 13.1617 13.553 13.1927C13.5049 13.2237 13.4635 13.2641 13.4314 13.3115C13.2026 13.6493 12.6807 14.3888 12.6807 14.3888C12.6807 14.3888 11.4598 15.0463 9.29979 12.8862C9.26711 12.8535 9.24091 12.8231 9.2095 12.7908C9.17724 12.7594 9.14681 12.7332 9.11413 12.7006C6.95409 10.5405 7.61148 9.31964 7.61148 9.31964C7.61148 9.31964 8.35109 8.79771 8.68885 8.56894C8.73625 8.53682 8.77667 8.49544 8.80767 8.44729C8.83866 8.39914 8.8596 8.34523 8.86923 8.28878C8.87885 8.23233 8.87696 8.17452 8.86367 8.11882C8.85038 8.06313 8.82596 8.01069 8.79188 7.96467L6.96051 5.11248C6.92938 5.06993 6.8896 5.03445 6.84378 5.00837C6.79796 4.9823 6.74714 4.96622 6.69466 4.9612C6.64218 4.95618 6.58924 4.96232 6.5393 4.97923C6.48937 4.99614 6.44358 5.02343 6.40495 5.05931C5.98077 5.45474 5.10528 6.32654 4.97134 6.60621C4.64994 7.29693 4.60562 8.08458 4.8475 8.80699C5.47083 10.6997 6.5302 12.4194 7.94019 13.8275C7.97985 13.8672 8.02007 13.9017 8.05985 13.9405C8.09861 13.9803 8.13318 14.0205 8.17282 14.0602C9.58094 15.4701 11.3007 16.5295 13.1934 17.1528C13.9158 17.3947 14.7034 17.3504 15.3941 17.029C15.4615 16.9915 15.5253 16.9478 15.5847 16.8986L16.3051 17.2397C17.0529 17.5969 17.9097 17.6514 18.6968 17.392C19.4838 17.1325 20.1403 16.5792 20.5291 15.8474C21.2963 14.3471 21.6939 12.6852 21.6888 11.0001C21.6863 9.54078 21.3861 8.09726 20.8067 6.75786C20.2273 5.41845 19.3807 4.21131 18.3188 3.21025Z" fill="#3A3A3A"/>
</g>
<defs>
<clipPath id="clip0_580_4676">
<rect width="22" height="22" fill="white"/>
</clipPath>
</defs>
</svg>
