<svg width="18" height="18" viewBox="0 0 18 18" fill="none" xmlns="http://www.w3.org/2000/svg">
<g clip-path="url(#clip0_579_4483)">
<path d="M14.9882 2.62648C13.7791 1.49038 12.2718 0.72165 10.6422 0.410036C9.01268 0.0984218 7.3281 0.256781 5.78515 0.866625C4.24221 1.47647 2.90457 2.51264 1.92841 3.85416C0.952239 5.19568 0.377819 6.7872 0.272206 8.44293C0.19196 9.6373 0.359697 10.8353 0.76487 11.9617C1.17004 13.0881 1.80389 14.1185 2.62655 14.9881C3.4456 15.8569 4.43326 16.5496 5.52914 17.0236C6.62502 17.4977 7.80608 17.7433 9.0001 17.7453C9.12452 17.7453 9.24384 17.6959 9.33182 17.6079C9.4198 17.5199 9.46922 17.4006 9.46922 17.2762C9.46922 17.1518 9.4198 17.0324 9.33182 16.9445C9.24384 16.8565 9.12452 16.8071 9.0001 16.8071C6.97267 16.8071 5.02473 16.0185 3.56836 14.6081C2.11199 13.1976 1.26142 11.2759 1.19659 9.2495C1.13175 7.22311 1.85774 5.25097 3.22097 3.75029C4.58421 2.24961 6.47775 1.33809 8.50103 1.20856C9.56613 1.14045 10.6339 1.29142 11.6383 1.65216C12.6428 2.01289 13.5626 2.57573 14.341 3.30591C15.1194 4.03608 15.7399 4.91809 16.1641 5.89746C16.5882 6.87683 16.8071 7.93276 16.8071 9.00003C16.811 10.2306 16.5208 11.4442 15.9607 12.5399C15.7544 12.9221 15.4086 13.21 14.9954 13.3437C14.5821 13.4773 14.1332 13.4464 13.7422 13.2573L13.4935 13.1395C13.6345 12.9977 13.7653 12.8623 13.8609 12.7598C13.8902 12.7282 13.9126 12.6907 13.9264 12.6499C13.9402 12.609 13.9453 12.5657 13.9412 12.5228C13.9371 12.4798 13.9239 12.4382 13.9026 12.4007C13.8812 12.3633 13.8522 12.3307 13.8174 12.3052L11.4838 10.8068C11.4461 10.7789 11.4032 10.759 11.3576 10.7481C11.3121 10.7372 11.2648 10.7357 11.2186 10.7435C11.1724 10.7514 11.1283 10.7686 11.0889 10.7939C11.0495 10.8193 11.0157 10.8524 10.9894 10.8911C10.8022 11.1675 10.3752 11.7726 10.3752 11.7726C10.3752 11.7726 9.37626 12.3105 7.60897 10.5432C7.58223 10.5164 7.56079 10.4915 7.5351 10.4651C7.5087 10.4394 7.48381 10.418 7.45706 10.3913C5.68976 8.62397 6.22762 7.62507 6.22762 7.62507C6.22762 7.62507 6.83276 7.19804 7.10911 7.01086C7.14789 6.98458 7.18096 6.95072 7.20632 6.91133C7.23168 6.87194 7.24882 6.82782 7.25669 6.78164C7.26456 6.73546 7.26302 6.68816 7.25214 6.64259C7.24127 6.59702 7.22129 6.55411 7.19341 6.51646L5.69501 4.18285C5.66954 4.14804 5.637 4.11901 5.59951 4.09767C5.56202 4.07634 5.52044 4.06318 5.4775 4.05907C5.43456 4.05496 5.39124 4.05999 5.35039 4.07383C5.30953 4.08766 5.27207 4.10999 5.24047 4.13935C4.89341 4.46288 4.1771 5.17617 4.06751 5.405C3.80455 5.97012 3.76829 6.61457 3.96619 7.20563C4.47618 8.75419 5.34294 10.1612 6.49657 11.3133C6.52902 11.3458 6.56193 11.374 6.59448 11.4058C6.62618 11.4383 6.65447 11.4712 6.6869 11.5037C7.839 12.6573 9.24605 13.5241 10.7946 14.0341C11.3857 14.2319 12.0301 14.1957 12.5953 13.9327C12.6504 13.902 12.7026 13.8663 12.7511 13.826L13.3406 14.1052C13.9524 14.3973 14.6535 14.442 15.2974 14.2297C15.9414 14.0174 16.4785 13.5647 16.7966 12.9659C17.4243 11.7384 17.7496 10.3787 17.7454 9.00002C17.7434 7.806 17.4978 6.62494 17.0237 5.52907C16.5496 4.43319 15.857 3.44553 14.9882 2.62648Z" fill="#3A3A3A"/>
</g>
<defs>
<clipPath id="clip0_579_4483">
<rect width="18" height="18" fill="white"/>
</clipPath>
</defs>
</svg>
