<svg width="40" height="40" viewBox="0 0 40 40" fill="none" xmlns="http://www.w3.org/2000/svg">
<g clip-path="url(#clip0_580_4928)">
<path d="M39.5731 10.3269C39.03 8.85942 37.4075 7.98066 35.8681 8.37129L33.7169 7.05941C32.9044 6.56754 31.9225 6.47129 31.0237 6.79441L23.1537 9.65816L16.6912 0.526289C16.5287 0.296914 16.2306 0.204414 15.9675 0.300039L12.4487 1.58129C12.1237 1.69941 11.9569 2.05754 12.075 2.38191L15.705 12.3675L7.87999 15.215L3.67687 10.5138C3.50749 10.3238 3.23812 10.255 2.99749 10.3432L0.64812 11.1982C0.32312 11.3157 0.156245 11.675 0.27437 11.9988L3.69374 21.395C3.78374 21.6425 4.01874 21.8063 4.28062 21.8063C4.28312 21.8063 4.28562 21.8063 4.28874 21.8063L17.5325 21.6438C17.6025 21.6432 17.6731 21.63 17.7387 21.6057L18.9119 21.1775L22.3325 30.575C22.4244 30.8288 22.6644 30.9869 22.9194 30.9869C22.99 30.9869 23.0625 30.9744 23.1331 30.9488L26.6575 29.6657C26.9225 29.5694 27.09 29.3075 27.0662 29.0269L26.1944 18.5288L37.7069 14.3363C38.9362 13.8888 39.7619 12.7063 39.7619 11.3932C39.7625 11.0382 39.7 10.6813 39.5731 10.3269ZM13.4631 2.54254L15.9469 1.63816L21.9369 10.1007L16.8794 11.9407L13.4631 2.54254ZM3.37187 16.8557L1.6625 12.1594L3.02749 11.6632L6.61562 15.6757L3.37187 16.8557ZM23.2937 29.5607L19.0181 17.8144L24.7094 15.7432L25.7819 28.6557L23.2937 29.5607ZM37.28 13.1632L26.0875 17.2388L25.8869 14.8244C25.8712 14.63 25.7656 14.4544 25.6012 14.3494C25.4369 14.2444 25.2325 14.2232 25.0506 14.2882L18.0031 16.8532C17.8475 16.91 17.7206 17.0263 17.6506 17.1763C17.5806 17.3269 17.5731 17.4988 17.63 17.6544L18.485 20.0032L17.4112 20.395L4.71687 20.5513L3.80062 18.0307L31.4494 7.97004C31.99 7.77504 32.5812 7.83316 33.0681 8.12754L33.6669 8.49254L31.8319 9.16066L32.2594 10.3357L35.0331 9.32629L35.4562 9.58441C35.6169 9.68316 35.815 9.70254 35.9906 9.64004C36.9856 9.28566 38.055 9.82379 38.3987 10.7544C38.4744 10.9669 38.5131 11.1819 38.5131 11.3944C38.5125 12.1838 38.0169 12.8944 37.28 13.1632Z" fill="#3A3A3A"/>
<path d="M28.8951 10.2302L27.7209 10.6572L28.1482 11.832L29.3224 11.4049L28.8951 10.2302Z" fill="#3A3A3A"/>
<path d="M26.5456 11.0852L25.3714 11.5122L25.7987 12.687L26.9728 12.2599L26.5456 11.0852Z" fill="#3A3A3A"/>
<path d="M24.1969 11.9406L23.0228 12.3677L23.45 13.5424L24.6242 13.1154L24.1969 11.9406Z" fill="#3A3A3A"/>
<path d="M21.8474 12.7956L20.6733 13.2227L21.1005 14.3974L22.2747 13.9704L21.8474 12.7956Z" fill="#3A3A3A"/>
<path d="M19.4979 13.6506L18.3237 14.0776L18.751 15.2524L19.9252 14.8254L19.4979 13.6506Z" fill="#3A3A3A"/>
<path d="M17.1485 14.5056L15.9744 14.9326L16.4016 16.1074L17.5758 15.6803L17.1485 14.5056Z" fill="#3A3A3A"/>
<path d="M14.799 15.3608L13.6248 15.7878L14.0521 16.9626L15.2263 16.5356L14.799 15.3608Z" fill="#3A3A3A"/>
<path d="M12.4509 16.2137L11.2764 16.6416L11.7043 17.8161L12.8788 17.3882L12.4509 16.2137Z" fill="#3A3A3A"/>
<path d="M10.1016 17.0687L8.92708 17.4966L9.35495 18.6711L10.5295 18.2432L10.1016 17.0687Z" fill="#3A3A3A"/>
<path d="M11.875 27.5H15.74C15.9988 28.2256 16.6862 28.75 17.5 28.75C18.5338 28.75 19.375 27.9088 19.375 26.875C19.375 25.8412 18.5338 25 17.5 25C16.6862 25 15.9988 25.5244 15.74 26.25H11.875C9.80687 26.25 8.125 27.9319 8.125 30C8.125 32.0681 9.80687 33.75 11.875 33.75H22.5V32.5H11.875C10.4962 32.5 9.375 31.3788 9.375 30C9.375 28.6212 10.4962 27.5 11.875 27.5ZM17.5 26.25C17.845 26.25 18.125 26.5306 18.125 26.875C18.125 27.2194 17.845 27.5 17.5 27.5C17.155 27.5 16.875 27.2194 16.875 26.875C16.875 26.5306 17.155 26.25 17.5 26.25Z" fill="#3A3A3A"/>
<path d="M25 32.5H23.75V33.75H25V32.5Z" fill="#3A3A3A"/>
<path d="M31.5625 32.5H26.25V33.75H31.5625C32.4244 33.75 33.125 34.4512 33.125 35.3125C33.125 36.1738 32.4244 36.875 31.5625 36.875H11.875V38.125H31.5625C33.1131 38.125 34.375 36.8631 34.375 35.3125C34.375 33.7619 33.1131 32.5 31.5625 32.5Z" fill="#3A3A3A"/>
<path d="M3.125 35.625C2.09125 35.625 1.25 36.4662 1.25 37.5C1.25 38.5338 2.09125 39.375 3.125 39.375C3.93875 39.375 4.62625 38.8506 4.885 38.125H10.625V36.875H4.885C4.62625 36.1494 3.93875 35.625 3.125 35.625ZM3.125 38.125C2.78 38.125 2.5 37.8444 2.5 37.5C2.5 37.1556 2.78 36.875 3.125 36.875C3.47 36.875 3.75 37.1556 3.75 37.5C3.75 37.8444 3.47 38.125 3.125 38.125Z" fill="#3A3A3A"/>
</g>
<defs>
<clipPath id="clip0_580_4928">
<rect width="40" height="40" fill="white"/>
</clipPath>
</defs>
</svg>
